<svg width="596" height="250" viewBox="0 0 596 250" fill="none" xmlns="http://www.w3.org/2000/svg">
<rect x="286" y="201" width="38" height="48" fill="#1A1B20" stroke="#8A93AB" stroke-width="2"/>
<rect x="156" y="39" width="298" height="178" fill="#1A1B20" stroke="#8A93AB" stroke-width="2"/>
<path d="M226 207V69H384V207H226Z" fill="#1A1B20" stroke="#3F434E" stroke-width="2"/>
<path d="M226 69V59H384V69H226Z" fill="#1A1B20" stroke="#3F434E" stroke-width="2"/>
<rect x="236" y="99" width="38" height="18" fill="#1A1B20" stroke="#F9D207" stroke-width="2"/>
<rect x="286" y="99" width="38" height="18" fill="#1A1B20" stroke="#31B5F7" stroke-width="2"/>
<rect x="336" y="99" width="38" height="18" fill="#1A1B20" stroke="#31B5F7" stroke-width="2"/>
<rect x="236" y="129" width="38" height="18" fill="#1A1B20" stroke="#3F434E" stroke-width="2"/>
<rect x="286" y="129" width="38" height="18" fill="#1A1B20" stroke="#3F434E" stroke-width="2"/>
<rect x="336" y="129" width="38" height="18" fill="#1A1B20" stroke="#3F434E" stroke-width="2"/>
<rect x="236" y="159" width="38" height="18" fill="#1A1B20" stroke="#3F434E" stroke-width="2"/>
<rect x="286" y="159" width="38" height="18" fill="#1A1B20" stroke="#3F434E" stroke-width="2"/>
<rect x="336" y="159" width="38" height="18" fill="#1A1B20" stroke="#3F434E" stroke-width="2"/>
<rect x="236" y="189" width="38" height="18" fill="#1A1B20" stroke="#3F434E" stroke-width="2"/>
<rect x="286" y="189" width="38" height="18" fill="#1A1B20" stroke="#3F434E" stroke-width="2"/>
<rect x="336" y="189" width="38" height="18" fill="#1A1B20" stroke="#3F434E" stroke-width="2"/>
<rect x="166" y="49" width="278" height="158" stroke="#8A93AB" stroke-width="2"/>
<rect x="166" y="241" width="278" height="8" fill="#1A1B20" stroke="#8A93AB" stroke-width="2"/>
<path d="M75 186H118V249H75V186Z" fill="#1A1B20" stroke="#3F434E" stroke-width="2"/>
<path d="M55 161H98V249H55V161Z" fill="#1A1B20" stroke="#8A93AB" stroke-width="2"/>
<rect x="61" y="237" width="10" height="6" fill="#1A1B20" stroke="#F9D207" stroke-width="2"/>
<rect x="61" y="225" width="10" height="6" fill="#1A1B20" stroke="#F9D207" stroke-width="2"/>
<rect x="64" y="148" width="10" height="2" fill="#3F434E"/>
<rect x="64" y="141" width="10" height="2" fill="#3F434E"/>
<rect x="64" y="134" width="10" height="2" fill="#3F434E"/>
<path d="M513 206H541V249H513V206Z" fill="#1A1B20" stroke="#3F434E" stroke-width="2"/>
<rect x="518" y="185" width="2" height="20" fill="#E8455D"/>
<rect x="524" y="187" width="2" height="18" fill="#31B5F7"/>
<rect x="530" y="195" width="2" height="10" fill="#F9D207"/>
</svg>
