<svg width="92" height="47" viewBox="0 0 92 47" fill="none" xmlns="http://www.w3.org/2000/svg">
<g clip-path="url(#clip0)">
<path d="M0 46.6706V29.9426H1.29585C1.48554 34.7067 2.36954 38.5366 3.95096 41.429C5.53032 44.324 7.47925 45.7695 9.79622 45.7695C10.9972 45.7695 11.9776 45.3448 12.7364 44.4939C13.4941 43.6435 13.874 42.5466 13.874 41.2037C13.874 39.6438 13.3781 37.8012 12.3884 35.6793C11.3972 33.5571 9.73281 30.824 7.39472 27.481C4.53033 23.3762 2.66027 20.1368 1.78554 17.7653C0.910293 15.3924 0.473702 12.9354 0.473702 10.3926C0.473702 7.26861 1.13709 4.75634 2.46491 2.85512C3.7922 0.952452 5.49836 -1.11374e-05 7.58492 -1.11374e-05C8.61634 -1.11374e-05 9.622 0.276021 10.6029 0.8261C11.5817 1.37764 12.4513 2.14409 13.2091 3.124L14.6312 0.0616386H15.927V15.1971H14.6312C14.2735 10.8535 13.4622 7.44893 12.1982 4.98676C10.9338 2.52367 9.39673 1.29318 7.58492 1.29318C6.40504 1.29318 5.47207 1.69358 4.78702 2.49464C4.1025 3.29543 3.76076 4.38604 3.76076 5.76621C3.76076 7.7296 5.30867 10.8032 8.40552 14.9874C9.56529 16.5892 10.4606 17.8394 11.0926 18.7411C13.7261 22.5657 15.5363 25.6979 16.5275 28.1414C17.5172 30.5849 18.0131 32.9863 18.0131 35.3489C18.0131 38.8732 17.2811 41.6957 15.8162 43.8165C14.3518 45.9404 12.4302 47.0005 10.0498 47.0005C8.72201 47.0005 7.50553 46.7157 6.39989 46.146C5.29321 45.5748 4.18137 44.6684 3.06541 43.427L1.29585 46.6706H0Z" fill="white"/>
<path d="M23.7867 40.0333C23.7238 40.4139 23.6815 40.7806 23.6599 41.1302C23.6393 41.4798 23.6285 41.8361 23.6285 42.196C23.6285 43.1769 23.9027 43.8735 24.4506 44.2831C24.9979 44.6933 25.9367 44.9202 27.2628 44.959V46.3107H17.4347V44.959C19.4151 44.5991 20.7636 42.645 21.48 39.1016C21.5227 38.8825 21.5532 38.722 21.5759 38.6226L29.065 0.721911H34.784L42.8739 44.959H44.9909V46.3107H32.1927V44.959H35.5431L33.6153 33.4566H24.9243L23.7867 40.0333ZM25.2727 31.8651H33.2984L29.3484 8.92073L25.2727 31.8651Z" fill="white"/>
<path d="M44.5718 46.3107V44.959C45.9827 44.8192 46.9471 44.3386 47.4641 43.5177C47.9805 42.6953 48.2373 41.024 48.2373 38.5019V2.07318H45.1404V0.721911H54.4001L66.1245 28.2916V7.92902C66.1245 5.8874 65.771 4.40104 65.0659 3.46939C64.3582 2.5388 63.2158 2.07318 61.636 2.07318V0.721911H71.6864V2.07318H71.4961C70.1689 2.07318 69.2637 2.40821 68.7777 3.07894C68.2931 3.75059 68.0524 5.16603 68.0524 7.32829V46.3107H66.6298L50.2599 8.56024V38.1419C50.2599 40.5641 50.6388 42.2758 51.3981 43.2769C52.1563 44.279 53.4831 44.8383 55.3795 44.959V46.3107H44.5718Z" fill="white"/>
<path d="M73.9853 46.6706V29.9426H75.2806C75.4698 34.7067 76.3549 38.5366 77.9346 41.429C79.5156 44.324 81.463 45.7695 83.7815 45.7695C84.9826 45.7695 85.9618 45.3448 86.7202 44.4939C87.4789 43.6435 87.8578 42.5466 87.8578 41.2037C87.8578 39.6438 87.3629 37.8012 86.3733 35.6793C85.3825 33.5571 83.7182 30.824 81.38 27.481C78.5156 23.3762 76.644 20.1368 75.7708 17.7653C74.8956 15.3924 74.4585 12.9354 74.4585 10.3926C74.4585 7.26861 75.1224 4.75634 76.4501 2.85512C77.7775 0.952452 79.4837 -1.11374e-05 81.5702 -1.11374e-05C82.6021 -1.11374e-05 83.6073 0.276021 84.5881 0.8261C85.5665 1.37764 86.4366 2.14409 87.1943 3.124L88.6165 0.0616386H89.9123V15.1971H88.6165C88.2577 10.8535 87.4474 7.44893 86.1835 4.98676C84.9191 2.52367 83.3805 1.29318 81.5702 1.29318C80.3893 1.29318 79.4573 1.69358 78.7723 2.49464C78.0873 3.29543 77.7461 4.38604 77.7461 5.76621C77.7461 7.7296 79.2934 10.8032 82.3908 14.9874C83.5495 16.5892 84.4454 17.8394 85.0778 18.7411C87.7098 22.5657 89.5216 25.6979 90.5129 28.1414C91.5025 30.5849 91.9984 32.9863 91.9984 35.3489C91.9984 38.8732 91.2665 41.6957 89.8009 43.8165C88.3366 45.9404 86.4139 47.0005 84.0351 47.0005C82.7072 47.0005 81.4909 46.7157 80.3841 46.146C79.2785 45.5748 78.1666 44.6684 77.0507 43.427L75.2806 46.6706H73.9853Z" fill="white"/>
<path d="M89.9783 33.4669H33.7608V31.8718H89.9783V33.4669Z" fill="white"/>
</g>
<defs>
<clipPath id="clip0">
<rect width="92" height="47" fill="white"/>
</clipPath>
</defs>
</svg>
