<svg width="44" height="22" viewBox="0 0 44 22" fill="none" xmlns="http://www.w3.org/2000/svg">
<g clip-path="url(#clip0)">
<path d="M0 21.8458V14.0157H0.606283C0.69503 16.2457 1.10862 18.0384 1.84851 19.3923C2.58744 20.7474 3.49927 21.424 4.5833 21.424C5.1452 21.424 5.60389 21.2252 5.95889 20.8269C6.31341 20.4289 6.49116 19.9154 6.49116 19.2868C6.49116 18.5567 6.25915 17.6942 5.7961 16.701C5.33235 15.7076 4.55363 14.4283 3.45972 12.8634C2.11958 10.942 1.24464 9.42574 0.83539 8.31569C0.425893 7.20495 0.221628 6.05487 0.221628 4.86464C0.221628 3.40233 0.532005 2.22637 1.15324 1.33644C1.77423 0.445832 2.57248 -1.38576e-06 3.54871 -1.38576e-06C4.03128 -1.38576e-06 4.50179 0.129205 4.96072 0.386689C5.41868 0.644855 5.82553 1.00362 6.18006 1.4623L6.84541 0.0288559H7.45167V7.11354H6.84541C6.67804 5.08035 6.29847 3.48673 5.70711 2.33423C5.11554 1.1813 4.39639 0.605324 3.54871 0.605324C2.99669 0.605324 2.56019 0.792744 2.23967 1.16771C1.91941 1.54254 1.75952 2.05304 1.75952 2.69908C1.75952 3.61811 2.48374 5.05683 3.93264 7.01536C4.47526 7.76516 4.89415 8.35038 5.18982 8.77244C6.42195 10.5627 7.26887 12.0288 7.73264 13.1726C8.19567 14.3163 8.42768 15.4404 8.42768 16.5463C8.42768 18.196 8.08522 19.5171 7.39981 20.5099C6.71471 21.504 5.81564 22.0002 4.70195 22.0002C4.08072 22.0002 3.51157 21.8669 2.99428 21.6003C2.4765 21.3329 1.95631 20.9086 1.4342 20.3276L0.606283 21.8458H0Z" fill="#31B5F7"/>
<path d="M11.129 18.739C11.0995 18.9172 11.0798 19.0888 11.0696 19.2524C11.06 19.4161 11.0549 19.5828 11.0549 19.7513C11.0549 20.2105 11.1832 20.5365 11.4396 20.7283C11.6957 20.9203 12.1349 21.0264 12.7553 21.0446V21.6773H8.1571V21.0446C9.08366 20.8761 9.71456 19.9615 10.0497 18.3029C10.0697 18.2003 10.084 18.1252 10.0946 18.0786L13.5985 0.337906H16.2742L20.0592 21.0446H21.0497V21.6773H15.0618V21.0446H16.6294L15.7274 15.6605H11.6612L11.129 18.739ZM11.8242 14.9156H15.5791L13.7311 4.17565L11.8242 14.9156Z" fill="#31B5F7"/>
<path d="M20.8535 21.6773V21.0446C21.5136 20.9792 21.9648 20.7542 22.2067 20.37C22.4484 19.985 22.5685 19.2027 22.5685 18.0221V0.970413H21.1196V0.337906H25.4518L30.9373 13.2429V3.71144C30.9373 2.75579 30.7719 2.06005 30.442 1.62396C30.1109 1.18836 29.5764 0.970413 28.8373 0.970413V0.337906H33.5395V0.970413H33.4504C32.8295 0.970413 32.406 1.12724 32.1786 1.44119C31.9519 1.75559 31.8393 2.41813 31.8393 3.43025V21.6773H31.1737L23.5148 4.00691V17.8537C23.5148 18.9875 23.6921 19.7887 24.0473 20.2573C24.402 20.7263 25.0228 20.9881 25.91 21.0446V21.6773H20.8535Z" fill="#31B5F7"/>
<path d="M34.6151 21.8458V14.0157H35.2211C35.3096 16.2457 35.7237 18.0384 36.4628 19.3923C37.2025 20.7474 38.1136 21.424 39.1983 21.424C39.7603 21.424 40.2184 21.2252 40.5732 20.8269C40.9282 20.4289 41.1055 19.9154 41.1055 19.2868C41.1055 18.5567 40.874 17.6942 40.4109 16.701C39.9474 15.7076 39.1687 14.4283 38.0748 12.8634C36.7346 10.942 35.8589 9.42574 35.4504 8.31569C35.0409 7.20495 34.8364 6.05487 34.8364 4.86464C34.8364 3.40233 35.147 2.22637 35.7682 1.33644C36.3893 0.445832 37.1875 -1.38576e-06 38.1637 -1.38576e-06C38.6465 -1.38576e-06 39.1168 0.129205 39.5757 0.386689C40.0335 0.644855 40.4406 1.00362 40.7951 1.4623L41.4605 0.0288559H42.0667V7.11354H41.4605C41.2926 5.08035 40.9135 3.48673 40.3221 2.33423C39.7306 1.1813 39.0107 0.605324 38.1637 0.605324C37.6112 0.605324 37.1752 0.792744 36.8547 1.16771C36.5342 1.54254 36.3746 2.05304 36.3746 2.69908C36.3746 3.61811 37.0985 5.05683 38.5477 7.01536C39.0898 7.76516 39.5089 8.35038 39.8048 8.77244C41.0363 10.5627 41.8839 12.0288 42.3477 13.1726C42.8107 14.3163 43.0427 15.4404 43.0427 16.5463C43.0427 18.196 42.7003 19.5171 42.0146 20.5099C41.3295 21.504 40.4299 22.0002 39.317 22.0002C38.6957 22.0002 38.1266 21.8669 37.6088 21.6003C37.0915 21.3329 36.5713 20.9086 36.0492 20.3276L35.2211 21.8458H34.6151Z" fill="#31B5F7"/>
<path d="M42.0976 15.6654H15.7955V14.9187H42.0976V15.6654Z" fill="#31B5F7"/>
</g>
<defs>
<clipPath id="clip0">
<rect width="43.0435" height="22" fill="white"/>
</clipPath>
</defs>
</svg>
